<svg xmlns="http://www.w3.org/2000/svg" width="400.396" height="395.057" viewBox="0 0 105.938 104.526"><g fill="#f2f2f2" transform="matrix(4.70836 0 0 4.70836 -8.475 -6.592)"><circle r=".4" cy="1.8" cx="9.5"/><circle r=".4" cy="1.8" cx="10.9"/><circle r=".4" cy="1.8" cx="12.3"/><circle r=".4" cy="1.8" cx="15.2"/><circle r=".2" cy="1.8" cx="16.7"/><circle r=".1" cy="1.8" cx="18.1"/><circle r=".4" cy="3.2" cx="5.1"/><circle r=".1" cy="3.2" cx="6.6"/><circle r=".2" cy="3.2" cx="8"/><circle r=".4" cy="3.2" cx="9.5"/><circle r=".1" cy="3.2" cx="12.3"/><circle r=".1" cy="3.2" cx="15.2"/><circle r=".3" cy="3.2" cx="16.7"/><circle r=".1" cy="3.2" cx="18.1"/><circle r=".1" cy="4.7" cx="2.3"/><circle r=".2" cy="4.7" cx="5.1"/><circle r=".3" cy="4.7" cx="6.6"/><circle r=".2" cy="4.7" cx="8"/><circle r=".5" cy="4.7" cx="9.5"/><circle r=".6" cy="4.7" cx="10.9"/><circle r=".4" cy="4.7" cx="12.3"/><circle r=".4" cy="4.7" cx="13.8"/><circle r=".1" cy="4.7" cx="15.2"/><circle r=".1" cy="4.7" cx="16.7"/><circle r=".5" cy="4.7" cx="18.1"/><circle r=".1" cy="4.7" cx="19.5"/><circle r=".1" cy="6.1" cx="3.7"/><circle r=".3" cy="6.1" cx="5.1"/><circle r=".4" cy="6.1" cx="6.6"/><circle r=".4" cy="6.1" cx="8"/><circle r=".3" cy="6.1" cx="9.5"/><circle r=".5" cy="6.1" cx="10.9"/><circle r=".5" cy="6.1" cx="12.3"/><circle r=".4" cy="6.1" cx="13.8"/><circle r=".5" cy="6.1" cx="15.2"/><circle r=".3" cy="6.1" cx="16.7"/><circle r=".2" cy="6.1" cx="18.1"/><circle r=".1" cy="6.1" cx="21"/><circle r=".1" cy="7.6" cx="2.3"/><circle r=".1" cy="7.6" cx="3.7"/><circle r=".2" cy="7.6" cx="5.1"/><circle r=".1" cy="7.6" cx="6.6"/><circle r=".3" cy="7.6" cx="8"/><circle r=".5" cy="7.6" cx="9.5"/><circle r=".5" cy="7.6" cx="10.9"/><circle r=".5" cy="7.6" cx="12.3"/><circle r=".4" cy="7.6" cx="13.8"/><circle r=".4" cy="7.6" cx="15.2"/><circle r=".2" cy="7.6" cx="16.7"/><circle r=".4" cy="7.6" cx="18.1"/><circle r=".1" cy="7.6" cx="19.5"/><circle r=".5" cy="7.6" cx="21"/><circle r=".1" cy="7.6" cx="22.4"/><circle r=".2" cy="9" cx="2.3"/><circle r=".2" cy="9" cx="3.7"/><circle r=".4" cy="9" cx="5.1"/><circle r=".2" cy="9" cx="6.6"/><circle r=".2" cy="9" cx="8"/><circle r=".3" cy="9" cx="9.5"/><circle r=".4" cy="9" cx="10.9"/><circle r=".4" cy="9" cx="12.3"/><circle r=".3" cy="9" cx="13.8"/><circle r=".3" cy="9" cx="15.2"/><circle r=".2" cy="9" cx="16.7"/><circle r=".3" cy="9" cx="18.1"/><circle r=".2" cy="9" cx="19.5"/><circle r=".3" cy="9" cx="21"/><circle r=".2" cy="9" cx="22.4"/><circle r=".4" cy="10.4" cx="2.3"/><circle r=".4" cy="10.4" cx="3.7"/><circle r=".3" cy="10.4" cx="5.1"/><circle r=".2" cy="10.4" cx="6.6"/><circle r=".2" cy="10.4" cx="8"/><circle r=".2" cy="10.4" cx="9.5"/><circle r=".3" cy="10.4" cx="10.9"/><circle r=".3" cy="10.4" cx="12.3"/><circle r=".4" cy="10.4" cx="13.8"/><circle r=".4" cy="10.4" cx="15.2"/><circle r=".4" cy="10.4" cx="16.7"/><circle r=".3" cy="10.4" cx="18.1"/><circle r=".1" cy="10.4" cx="19.5"/><circle r=".1" cy="10.4" cx="21"/><circle r=".2" cy="10.4" cx="22.4"/><circle r=".4" cy="10.4" cx="23.9"/><circle r=".5" cy="11.9" cx="2.3"/><circle r=".2" cy="11.9" cx="3.7"/><circle r=".2" cy="11.9" cx="5.1"/><circle r=".5" cy="11.9" cx="6.6"/><circle r=".4" cy="11.9" cx="8"/><circle r=".4" cy="11.9" cx="9.5"/><circle r=".4" cy="11.9" cx="10.9"/><circle r=".3" cy="11.9" cx="12.3"/><circle r=".3" cy="11.9" cx="13.8"/><circle r=".4" cy="11.9" cx="15.2"/><circle r=".4" cy="11.9" cx="16.7"/><circle r=".4" cy="11.9" cx="18.1"/><circle r=".4" cy="11.9" cx="19.5"/><circle r=".1" cy="11.9" cx="22.4"/><circle r=".1" cy="13.3" cx="3.7"/><circle r=".4" cy="13.3" cx="5.1"/><circle r=".4" cy="13.3" cx="6.6"/><circle r=".3" cy="13.3" cx="8"/><circle r=".4" cy="13.3" cx="9.5"/><circle r=".3" cy="13.3" cx="10.9"/><circle r=".3" cy="13.3" cx="12.3"/><circle r=".4" cy="13.3" cx="13.8"/><circle r=".3" cy="13.3" cx="15.2"/><circle r=".4" cy="13.3" cx="16.7"/><circle r=".5" cy="13.3" cx="18.1"/><circle r=".5" cy="13.3" cx="19.5"/><circle r=".1" cy="13.3" cx="21"/><circle r=".1" cy="14.8" cx="2.3"/><circle r=".5" cy="14.8" cx="3.7"/><circle r=".4" cy="14.8" cx="5.1"/><circle r=".4" cy="14.8" cx="6.6"/><circle r=".4" cy="14.8" cx="8"/><circle r=".5" cy="14.8" cx="9.5"/><circle r=".4" cy="14.8" cx="10.9"/><circle r=".3" cy="14.8" cx="12.3"/><circle r=".4" cy="14.8" cx="13.8"/><circle r=".4" cy="14.8" cx="15.2"/><circle r=".5" cy="14.8" cx="16.7"/><circle r=".5" cy="14.8" cx="18.1"/><circle r=".4" cy="14.8" cx="19.5"/><circle r=".4" cy="14.8" cx="21"/><circle r=".4" cy="14.8" cx="22.4"/><circle r=".4" cy="16.2" cx="2.3"/><circle r=".1" cy="16.2" cx="3.7"/><circle r=".4" cy="16.2" cx="5.1"/><circle r=".4" cy="16.2" cx="6.6"/><circle r=".5" cy="16.2" cx="8"/><circle r=".4" cy="16.2" cx="9.5"/><circle r=".3" cy="16.2" cx="10.9"/><circle r=".3" cy="16.2" cx="12.3"/><circle r=".2" cy="16.2" cx="13.8"/><circle r=".2" cy="16.2" cx="15.2"/><circle r=".5" cy="16.2" cx="16.7"/><circle r=".3" cy="16.2" cx="18.1"/><circle r=".5" cy="16.2" cx="19.5"/><circle r=".1" cy="16.2" cx="21"/><circle r=".1" cy="17.6" cx="2.3"/><circle r=".1" cy="17.6" cx="3.7"/><circle r=".2" cy="17.6" cx="5.1"/><circle r=".5" cy="17.6" cx="6.6"/><circle r=".5" cy="17.6" cx="8"/><circle r=".4" cy="17.6" cx="9.5"/><circle r=".4" cy="17.6" cx="10.9"/><circle r=".3" cy="17.6" cx="12.3"/><circle r=".2" cy="17.6" cx="13.8"/><circle r=".3" cy="17.6" cx="15.2"/><circle r=".4" cy="17.6" cx="16.7"/><circle r=".4" cy="17.6" cx="18.1"/><circle r=".1" cy="17.6" cx="19.5"/><circle r=".4" cy="17.6" cx="21"/><circle r=".1" cy="19.1" cx="5.1"/><circle r=".5" cy="19.1" cx="6.6"/><circle r=".4" cy="19.1" cx="8"/><circle r=".4" cy="19.1" cx="9.5"/><circle r=".1" cy="19.1" cx="10.9"/><circle r=".3" cy="19.1" cx="12.3"/><circle r=".2" cy="19.1" cx="13.8"/><circle r=".3" cy="19.1" cx="15.2"/><circle r=".1" cy="19.1" cx="16.7"/><circle r=".3" cy="19.1" cx="18.1"/><circle r=".3" cy="19.1" cx="19.5"/><circle r=".1" cy="20.5" cx="5.1"/><circle r=".1" cy="20.5" cx="6.6"/><circle r=".3" cy="20.5" cx="8"/><circle r=".5" cy="20.5" cx="9.5"/><circle r=".2" cy="20.5" cx="10.9"/><circle r=".1" cy="20.5" cx="12.3"/><circle r=".4" cy="20.5" cx="13.8"/><circle r=".2" cy="20.5" cx="15.2"/><circle r=".2" cy="20.5" cx="16.7"/><circle r=".2" cy="20.5" cx="18.1"/><circle r=".4" cy="20.5" cx="19.5"/><circle r=".1" cy="22" cx="8"/><circle r=".2" cy="22" cx="9.5"/><circle r=".5" cy="22" cx="10.9"/><circle r=".5" cy="22" cx="12.3"/><circle r=".2" cy="22" cx="13.8"/><circle r=".1" cy="22" cx="15.2"/><circle r=".1" cy="22" cx="16.7"/><circle r=".3" cy="22" cx="18.1"/><circle r=".2" cy="23.4" cx="15.2"/><circle r=".1" cy="23.4" cx="18.1"/></g></svg>