<svg xmlns="http://www.w3.org/2000/svg" width="440.4" height="120.8" style="isolation:isolate" viewBox="0 0 440.4 120.8"><defs><clipPath id="a"><path d="M0 0h440.4v120.8H0z"/></clipPath></defs><g clip-path="url(#a)"><path d="M129 104h-3.6v-3.7h11.1v3.6H133v16.6h-4V104zm33.1 7.6h-4.6v5.5h5.2v3.4h-9.1v-20.2h8.8v3.4h-4.9v4.7h4.6v3.2zm27.9 8.6a8 8 0 0 1-3 .5c-5.2 0-7.6-4.3-7.6-10 0-7.6 4.2-10.6 8.1-10.6 1 0 2 .2 2.8.6l-.7 3.3a4 4 0 0 0-1.8-.4c-2.2 0-4.3 1.9-4.3 6.9 0 4.8 1.9 6.7 4.3 6.7a7 7 0 0 0 1.9-.3l.3 3.3zm21.1-19.9v8.1h4.1v-8h4v20.1h-4v-8.4h-4v8.4h-4v-20.2h3.9zm26.5 20.2v-20.2h3.6l3.2 8 2.1 5.8c0-2-.3-5.6-.3-9.3v-4.5h3.4v20.2H246l-3-7.6c-.8-2-1.4-4-2-6.1h-.2c.1 2 .3 5.1.3 9.2v4.5h-3.5zM280 110c0 7.7-2.7 10.7-6.5 10.7-4.6 0-6.4-4.8-6.4-10.4 0-5.6 2.2-10.2 6.6-10.2 5 0 6.3 5.3 6.3 10v-.1zm-8.8.4c0 4.6.8 7 2.4 7 1.6 0 2.3-3 2.3-7.2 0-3.5-.6-6.7-2.3-6.7-1.6 0-2.4 2.6-2.4 7v-.1zm26.3-10.1h4v16.9h5.1v3.3h-9.1v-20.2zM335 110c0 7.7-2.7 10.7-6.5 10.7-4.6 0-6.4-4.8-6.4-10.4 0-5.6 2.2-10.2 6.6-10.2 5 0 6.3 5.3 6.3 10v-.1zm-8.8.4c0 4.6.8 7 2.4 7 1.6 0 2.3-3 2.3-7.2 0-3.5-.6-6.7-2.3-6.7-1.6 0-2.4 2.6-2.4 7v-.1zm37.5 9.6c-1.4.5-2.8.7-4.2.7-2 .1-4-.6-5.4-2a11.1 11.1 0 0 1-2.6-8.1c0-7.4 4.3-10.4 8.6-10.4a8 8 0 0 1 3.3.6l-.7 3.3a5 5 0 0 0-2.3-.4c-2.7 0-4.8 1.8-4.8 7.1 0 4.9 1.9 6.6 3.7 6.6h.8v-5h-1.8v-3.2h5.4V120zm21.9-19.7v20.2h-4v-20.2h4zm27 11.3H408v5.5h5.2v3.4H404v-20.2h8.8v3.4H408v4.7h4.6v3.2zm17.8 4.9c1 .5 2.2.8 3.3.8 1.9 0 2.8-1 2.8-2.3 0-1.3-1-2.2-2.6-3.3-2.8-1.7-3.8-3.8-3.8-5.6 0-3.3 2.1-6 6.4-6 1 0 2.1.2 3.1.7l-.6 3.4c-.8-.5-1.7-.7-2.6-.7a2.2 2.2 0 0 0-2.5 2.1c0 1.2.6 1.9 2.8 3.2 2.7 1.6 3.7 3.7 3.7 5.8 0 3.7-2.7 6.1-6.7 6.1-1.3 0-2.7-.2-3.9-.8l.6-3.4z"/><path fill="#39F" d="M103.1 0H76.8v12.4h26.3v26.4h12.4V0h-12.4z"/><path d="M40.3 38.3L29.2 20.4H.7l11.6 17.9h28zm44.7 0l11.6-17.9H68L56.9 38.3H85zm-8.5 13.2H48.8l-.2.3-.1-.3H20.8l12.1 18.9L0 120.5h28.6l20-31.5 20.1 31.5h28.6L64.4 70.4l12.1-18.9zM440.4 31V18.5H405q-10.3 0-15 4.6c-2 2.1-3.4 4.8-4 7.7l54.4.2zm-17.7 43.2l-5.3.2-5.2.2h-4.5c-1.3 0-2.5-.4-3.4-1.3-1-1-1.4-2.3-1.3-3.6V40h-17.7v29.7q0 9.7 4.5 14.2t14.2 4.5q14.5 0 36.4-2V73.2l-10.7.6-7 .4zm-61 0l-5.4.2-5 .2h-4.6c-1.3 0-2.5-.4-3.4-1.3-1-1-1.4-2.3-1.3-3.6V40h-17.7v29.7q0 9.7 4.5 14.2t14.2 4.5q14.5 0 36.4-2V73.2l-10.7.6-7 .4zM379.4 31V18.5H344q-10.3 0-15 4.6c-2 2.1-3.4 4.8-4 7.7l54.4.2zm-63.5 0c-.5-3.3-2-6.4-4.2-8.8q-4.6-4.6-15-4.6h-24.6q-10.3 0-15 4.6A16.1 16.1 0 0 0 253 31h62.9zm-17.2 9v28.7q0 6-6 6h-16.6q-6 0-6-6V40h-17.7v28.7q0 10.4 4.7 15t15 4.7h24.6q10.4 0 15-4.7t4.7-15V40h-17.7zM193.9 18.6h17.7V31h-17.7V18.6zM211.6 40h-17.7v47.4h53.6V73.7h-35.9V40zm-27.3-9c-.6-3-2-5.6-4-7.8q-4.6-4.6-15-4.6H124v12.3l60.3.1zm-17 9v8q0 6-5.9 6h-19.7V40H124v47.4h17.7V67.7h23.6q10.4 0 15-4.6t4.7-15V40h-17.7z"/></g></svg>